<svg width="1285" height="1285" viewBox="0 0 1285 1285" fill="none" xmlns="http://www.w3.org/2000/svg">
<g clip-path="url(#clip0_1_650)">
<path fill-rule="evenodd" clip-rule="evenodd" d="M937.862 336.5C861.232 262.513 756.931 217 642 217C406.727 217 216 407.726 216 643C216 756.754 255.42 854.595 328.071 931L273.285 978.5L218.5 1026C214.919 1022.17 216.983 1024.23 214.685 1021.48C209.633 1015.45 204.082 1009.03 202.35 1007.23L199.2 1003.96L155.35 1003.94C131.234 1003.93 110.993 1003.59 110.368 1003.19C109.349 1002.53 102.25 990.645 72.3633 939.574L63.0693 923.693L65.4531 919.574C101.68 856.979 107 847.283 107 843.844C107 841.856 105.631 836.91 103.957 832.851C95.161 811.521 83.8052 771.24 80.0352 747.998C78.9242 741.147 77.4488 735.007 76.7568 734.354C75.2112 732.894 7.77085 693.171 3.25 691.057L0 689.538V642.247C1.60455e-06 606.606 0.289939 594.957 1.17871 594.955C2.36171 594.955 19.7251 585.037 56 563.638C69.329 555.775 76.0224 551.236 77.1494 549.295C78.0565 547.732 79.7597 540.604 80.9346 533.455C84.5886 511.235 92.9179 481.569 102.589 456.334C105.564 448.568 107.999 441.694 108 441.056C108 440.42 105.346 435.3 102.102 429.678C81.8186 394.524 63.6844 362.312 63.6924 361.455C63.7 360.902 68.6541 352.128 74.7031 341.955C80.7531 331.78 90.9845 314.337 97.4395 303.193C103.894 292.05 110.006 282.487 111.022 281.943C112.163 281.335 129.948 280.955 157.319 280.955H201.77L203.489 278.332C211.944 265.428 258.93 217.773 274.392 206.421L281 201.569V156.953C281 122.816 281.294 111.946 282.25 110.67C283.577 108.9 292.88 103.246 331.5 80.7399C344.699 73.0473 356.875 65.9158 358.557 64.8912L361.615 63.0299L399.965 85.0133C421.056 97.1031 439.264 107.233 440.432 107.527C441.626 107.827 445.608 106.756 449.575 105.068C469.842 96.4443 509.011 85.2275 535.5 80.4635C546.886 78.4155 549.873 77.5222 551.5 75.6822C554.165 72.6672 594.994 2.72693 595 1.1676C595 0.234596 605.884 -0.0334664 642.25 0.0035336L689.5 0.0504086L700.95 19.7535C716.506 46.5205 734.11 76.2963 734.901 77.1803C735.262 77.5796 742.966 79.2912 752.025 80.985C779.941 86.201 807.335 93.9399 831.584 103.46C836.48 105.381 841.979 106.954 843.806 106.955C846.29 106.955 855.867 101.954 881.813 87.108C900.891 76.1923 918.094 66.3036 920.042 65.1324L923.584 63.0035L949.542 78.0445C994.257 103.954 1001.46 108.258 1002.75 109.819C1003.71 110.982 1004 121.485 1004 154.696C1004 190.284 1004.26 198.549 1005.43 200.812C1006.21 202.329 1010.15 206.007 1014.18 208.985C1019.89 213.207 1037.59 230.28 1053 245.954L937.862 336.5Z" fill="#FCBD78"/>
<path fill-rule="evenodd" clip-rule="evenodd" d="M1216.04 350.868C1219.66 357.213 1222 361.441 1222 361.788C1222 362.337 1212.1 379.881 1200 400.775C1187.9 421.669 1178 439.838 1178 441.153C1178 442.467 1180 448.517 1182.44 454.597C1191.45 477.001 1202.48 516.78 1205.83 538.955L1207.57 550.455L1216.04 555.556C1220.69 558.361 1237.77 568.459 1254 577.997C1270.23 587.534 1283.83 595.814 1284.23 596.396C1284.64 596.986 1284.98 618.025 1284.98 643.154L1285 688.853L1281.75 691.252C1279.96 692.572 1263.15 702.508 1244.38 713.333C1225.61 724.157 1209.58 733.788 1208.76 734.735C1207.92 735.7 1206.31 742.253 1205.09 749.652C1203.9 756.91 1201.14 769.96 1198.95 778.652C1194.77 795.301 1183.38 830.325 1180 836.962C1178.9 839.115 1178 842.245 1178 843.919C1178 846.068 1184.47 858.139 1200 884.955C1212.1 905.85 1222 923.319 1222 923.775C1222 924.232 1216.78 933.345 1210.4 944.029C1204.02 954.713 1193.61 972.567 1187.25 983.705L1175.69 1003.96H1085.18L1076.89 1013.71C1056.66 1037.51 1028.21 1065.75 1011.26 1078.86L1004.01 1084.46V1129.55C1004 1171.26 1003.87 1174.76 1002.25 1176.14C1001.29 1176.96 987.899 1184.97 972.5 1193.94C957.1 1202.91 940.092 1212.88 934.703 1216.1C929.316 1219.32 924.494 1221.96 923.985 1221.96C922.946 1221.96 903.483 1211 869.521 1191.29C856.883 1183.96 845.529 1177.96 844.291 1177.96C843.053 1177.96 837.644 1179.7 832.27 1181.84C804.065 1193.06 770.227 1202.06 739.41 1206.54C737.71 1206.78 735.423 1207.99 734.328 1209.22C733.231 1210.45 723.19 1227.21 712.013 1246.46C700.837 1265.71 691.005 1282.26 690.165 1283.23C688.736 1284.9 685.701 1285 642.899 1284.73L597.16 1284.46L594.626 1282.07C593.232 1280.76 587.71 1271.99 582.355 1262.57C577 1253.16 568.188 1238.03 562.773 1228.96C557.359 1219.88 552.563 1211.78 552.116 1210.96C550.746 1208.43 547.028 1207.22 533.562 1204.93C507.22 1200.44 476.569 1191.89 452.28 1182.26L441.061 1177.81L402.482 1199.99C372.518 1217.22 363.301 1222.08 361.202 1221.76C359.125 1221.45 316.191 1196.89 284.25 1177.74L281 1175.79V1087.4L278.75 1084.24C277.512 1082.5 272.675 1078.04 268 1074.33C262.876 1070.27 238.559 1046.8 229.309 1037.75L284.25 990L339.191 942.25C414.946 1011.5 531.271 1069 642 1069C877.273 1069 1068 878.273 1068 643C1068 593.327 1062.31 548.715 1049.98 508L1216.04 350.868Z" fill="#293F55"/>
<path d="M225.401 792.136L327.684 690.862L484.43 800.646L1133.85 202.485L1254.11 281.804L496.802 950.382L225.401 792.136Z" fill="#293F55"/>
</g>
<defs>
<clipPath id="clip0_1_650">
<rect width="1285" height="1285" fill="white"/>
</clipPath>
</defs>
</svg>
